<svg xmlns="http://www.w3.org/2000/svg" viewBox="0 0 760 330" width="760" height="330" font-family="system-ui, -apple-system, Segoe UI, sans-serif">
  <defs>
    <marker id="a" viewBox="0 0 10 10" refX="9" refY="5" markerWidth="7" markerHeight="7" orient="auto-start-reverse">
      <polygon points="0,1 10,5 0,9" fill="#5b6478"/>
    </marker>
    <marker id="ad" viewBox="0 0 10 10" refX="9" refY="5" markerWidth="7" markerHeight="7" orient="auto-start-reverse">
      <polygon points="0,1 10,5 0,9" fill="#9aa2b4"/>
    </marker>
  </defs>
  <rect width="760" height="330" fill="#fbfcfe"/>

  <rect x="280" y="20" width="200" height="56" rx="4" fill="#eef3f9" stroke="#26608f" stroke-width="1.3"/>
  <text x="380" y="42" text-anchor="middle" font-size="13" font-weight="600" fill="#16202e">Application</text>
  <text x="380" y="62" text-anchor="middle" font-size="11" fill="#5b6478">application_id · compatibility_enabled</text>

  <rect x="40" y="132" width="260" height="70" rx="4" fill="#eef3f9" stroke="#26608f" stroke-width="1.3"/>
  <text x="170" y="155" text-anchor="middle" font-size="13" font-weight="600" fill="#16202e">Permission</text>
  <text x="170" y="175" text-anchor="middle" font-size="11" fill="#5b6478">id</text>
  <text x="170" y="192" text-anchor="middle" font-size="11" fill="#5b6478">active</text>

  <rect x="460" y="132" width="260" height="70" rx="4" fill="#eef3f9" stroke="#26608f" stroke-width="1.3"/>
  <text x="590" y="155" text-anchor="middle" font-size="13" font-weight="600" fill="#16202e">ScopeDefinition</text>
  <text x="590" y="175" text-anchor="middle" font-size="11" fill="#5b6478">key</text>
  <text x="590" y="192" text-anchor="middle" font-size="11" fill="#5b6478">allowed_tokens — [] or ["$self"]</text>

  <rect x="230" y="256" width="300" height="56" rx="4" fill="#ffffff" stroke="#5b6478" stroke-width="1"/>
  <text x="380" y="278" text-anchor="middle" font-size="13" font-weight="600" fill="#16202e">GrantContent</text>
  <text x="380" y="298" text-anchor="middle" font-size="11" fill="#5b6478">permissions[] XOR role · scope</text>

  <path d="M330 60 H170 V130" fill="none" stroke="#5b6478" stroke-width="1.3" marker-end="url(#a)"/>
  <path d="M430 60 H590 V130" fill="none" stroke="#5b6478" stroke-width="1.3" marker-end="url(#a)"/>
  <text x="196" y="102" font-size="10.5" fill="#5b6478">registers</text>
  <text x="530" y="102" font-size="10.5" fill="#5b6478">registers</text>

  <path d="M300 284 H170 V204" fill="none" stroke="#5b6478" stroke-width="1.3" stroke-dasharray="5 4" marker-end="url(#a)"/>
  <path d="M530 284 H590 V204" fill="none" stroke="#5b6478" stroke-width="1.3" stroke-dasharray="5 4" marker-end="url(#a)"/>
  <text x="180" y="246" font-size="10.5" fill="#5b6478">each registered + active</text>
  <text x="452" y="246" font-size="10.5" fill="#5b6478">each key registered</text>

  <path d="M300 167 H458" fill="none" stroke="#9aa2b4" stroke-width="1.2" stroke-dasharray="4 4" marker-end="url(#ad)"/>
  <text x="379" y="157" text-anchor="middle" font-size="10.5" fill="#8a93a6">relationship validation</text>
  <text x="379" y="184" text-anchor="middle" font-size="10.5" fill="#a8452f">optional · representation pending P-11</text>
</svg>
